<svg width="17" height="17" viewBox="0 0 17 17" fill="none" xmlns="http://www.w3.org/2000/svg">
<path d="M7.11408 2.05908C6.11439 2.05908 5.13716 2.35552 4.30595 2.91092C3.47474 3.46632 2.82689 4.25572 2.44432 5.17931C2.06176 6.1029 1.96166 7.1192 2.15669 8.09967C2.35172 9.08015 2.83312 9.98078 3.54 10.6877C4.24689 11.3946 5.14752 11.8759 6.12799 12.071C7.10847 12.266 8.12477 12.1659 9.04836 11.7833C9.97195 11.4008 10.7614 10.7529 11.3167 9.92172C11.8721 9.09051 12.1686 8.11328 12.1686 7.11359C12.1685 5.77308 11.6359 4.48749 10.6881 3.53961C9.74018 2.59172 8.45459 2.05917 7.11408 2.05908V2.05908Z" stroke="black" stroke-width="1.2" stroke-miterlimit="10"/>
<path d="M10.8848 10.8848L14.4148 14.4148" stroke="black" stroke-width="1.2" stroke-miterlimit="10" stroke-linecap="round"/>
</svg>
